<svg width="24" height="24" viewBox="0 0 24 24" fill="none" xmlns="http://www.w3.org/2000/svg">
<path d="M4 22C3.71667 22 3.47917 21.9041 3.2875 21.7125C3.09583 21.5208 3 21.2833 3 21V17C3 16.45 3.19583 15.9791 3.5875 15.5875C3.97917 15.1958 4.45 15 5 15H19C19.55 15 20.0208 15.1958 20.4125 15.5875C20.8042 15.9791 21 16.45 21 17V21C21 21.2833 20.9042 21.5208 20.7125 21.7125C20.5208 21.9041 20.2833 22 20 22H4ZM5 13V9.99995C5 9.44995 5.19583 8.97912 5.5875 8.58745C5.97917 8.19579 6.45 7.99995 7 7.99995H11V6.54995C10.7 6.34995 10.4583 6.10828 10.275 5.82495C10.0917 5.54162 10 5.19995 10 4.79995C10 4.54995 10.05 4.30412 10.15 4.06245C10.25 3.82078 10.4 3.59995 10.6 3.39995L11.65 2.34995C11.6833 2.31662 11.8 2.26662 12 2.19995C12.0333 2.19995 12.15 2.24995 12.35 2.34995L13.4 3.39995C13.6 3.59995 13.75 3.82078 13.85 4.06245C13.95 4.30412 14 4.54995 14 4.79995C14 5.19995 13.9083 5.54162 13.725 5.82495C13.5417 6.10828 13.3 6.34995 13 6.54995V7.99995H17C17.55 7.99995 18.0208 8.19579 18.4125 8.58745C18.8042 8.97912 19 9.44995 19 9.99995V13H5Z" fill="black"/>
</svg>
