<svg width="24" height="24" viewBox="0 0 24 24" fill="none" xmlns="http://www.w3.org/2000/svg">
<path d="M5.52505 16.175L9.07505 12.625C9.27505 12.425 9.50838 12.3292 9.77505 12.3375C10.0417 12.3459 10.275 12.45 10.475 12.65C10.6584 12.85 10.75 13.0834 10.75 13.35C10.75 13.6167 10.6584 13.85 10.475 14.05L6.25005 18.3C6.05005 18.5 5.81672 18.6 5.55005 18.6C5.28338 18.6 5.05005 18.5 4.85005 18.3L2.70005 16.15C2.51672 15.9667 2.42505 15.7334 2.42505 15.45C2.42505 15.1667 2.51672 14.9334 2.70005 14.75C2.88338 14.5667 3.11672 14.475 3.40005 14.475C3.68338 14.475 3.91672 14.5667 4.10005 14.75L5.52505 16.175ZM5.52505 8.17504L9.07505 4.62504C9.27505 4.42504 9.50838 4.3292 9.77505 4.33754C10.0417 4.34587 10.275 4.45004 10.475 4.65004C10.6584 4.85004 10.75 5.08337 10.75 5.35004C10.75 5.6167 10.6584 5.85004 10.475 6.05004L6.25005 10.3C6.05005 10.5 5.81672 10.6 5.55005 10.6C5.28338 10.6 5.05005 10.5 4.85005 10.3L2.70005 8.15004C2.51672 7.9667 2.42505 7.73337 2.42505 7.45004C2.42505 7.1667 2.51672 6.93337 2.70005 6.75004C2.88338 6.5667 3.11672 6.47504 3.40005 6.47504C3.68338 6.47504 3.91672 6.5667 4.10005 6.75004L5.52505 8.17504ZM14 17C13.7167 17 13.4792 16.9042 13.2875 16.7125C13.0959 16.5209 13 16.2834 13 16C13 15.7167 13.0959 15.4792 13.2875 15.2875C13.4792 15.0959 13.7167 15 14 15H21C21.2834 15 21.5209 15.0959 21.7125 15.2875C21.9042 15.4792 22 15.7167 22 16C22 16.2834 21.9042 16.5209 21.7125 16.7125C21.5209 16.9042 21.2834 17 21 17H14ZM14 9.00004C13.7167 9.00004 13.4792 8.9042 13.2875 8.71254C13.0959 8.52087 13 8.28337 13 8.00004C13 7.7167 13.0959 7.4792 13.2875 7.28754C13.4792 7.09587 13.7167 7.00004 14 7.00004H21C21.2834 7.00004 21.5209 7.09587 21.7125 7.28754C21.9042 7.4792 22 7.7167 22 8.00004C22 8.28337 21.9042 8.52087 21.7125 8.71254C21.5209 8.9042 21.2834 9.00004 21 9.00004H14Z" fill="black"/>
</svg>
