<svg width="24" height="24" viewBox="0 0 24 24" fill="none" xmlns="http://www.w3.org/2000/svg">
<path d="M9.525 18L20.125 7.4L18.7 6L9.5 15.175L5.275 10.925L3.85 12.35L9.525 18ZM8.1 19.4L2.45 13.75C2.25 13.55 2.10417 13.3292 2.0125 13.0875C1.92083 12.8458 1.875 12.6 1.875 12.35C1.875 12.1 1.92083 11.85 2.0125 11.6C2.10417 11.35 2.25 11.125 2.45 10.925L3.85 9.525C4.05 9.325 4.27083 9.175 4.5125 9.075C4.75417 8.975 5.00833 8.925 5.275 8.925C5.54167 8.925 5.79583 8.975 6.0375 9.075C6.27917 9.175 6.5 9.325 6.7 9.525L9.525 12.35L17.275 4.575C17.4583 4.375 17.675 4.22917 17.925 4.1375C18.175 4.04583 18.425 4 18.675 4C18.925 4 19.175 4.04583 19.425 4.1375C19.675 4.22917 19.9 4.36667 20.1 4.55L21.525 5.95C21.725 6.15 21.875 6.37083 21.975 6.6125C22.075 6.85417 22.125 7.10833 22.125 7.375C22.125 7.64167 22.0792 7.89583 21.9875 8.1375C21.8958 8.37917 21.75 8.6 21.55 8.8L10.95 19.4C10.75 19.6 10.525 19.75 10.275 19.85C10.025 19.95 9.775 20 9.525 20C9.275 20 9.025 19.95 8.775 19.85C8.525 19.75 8.3 19.6 8.1 19.4Z" fill="black"/>
</svg>
