<svg width="24" height="24" viewBox="0 0 24 24" fill="none" xmlns="http://www.w3.org/2000/svg">
<path d="M1.74998 13.05C1.54998 12.85 1.45414 12.6166 1.46248 12.35C1.47081 12.0833 1.57498 11.85 1.77498 11.65C1.97498 11.4666 2.20831 11.3708 2.47498 11.3625C2.74164 11.3541 2.97498 11.45 3.17498 11.65L6.72498 15.2L7.07498 15.55L7.42498 15.9C7.62498 16.1 7.72081 16.3333 7.71248 16.6C7.70414 16.8666 7.59998 17.1 7.39998 17.3C7.19998 17.4833 6.96664 17.5791 6.69998 17.5875C6.43331 17.5958 6.19998 17.5 5.99998 17.3L1.74998 13.05ZM12.35 15.175L20.85 6.67496C21.05 6.47496 21.2833 6.37913 21.55 6.38746C21.8166 6.3958 22.05 6.49996 22.25 6.69996C22.4333 6.89996 22.5291 7.1333 22.5375 7.39996C22.5458 7.66663 22.45 7.89996 22.25 8.09996L13.05 17.3C12.85 17.5 12.6166 17.6 12.35 17.6C12.0833 17.6 11.85 17.5 11.65 17.3L7.39998 13.05C7.21664 12.8666 7.12498 12.6375 7.12498 12.3625C7.12498 12.0875 7.21664 11.85 7.39998 11.65C7.59998 11.45 7.83747 11.35 8.11247 11.35C8.38747 11.35 8.62497 11.45 8.82497 11.65L12.35 15.175ZM16.575 8.12496L13.05 11.65C12.8666 11.8333 12.6375 11.925 12.3625 11.925C12.0875 11.925 11.85 11.8333 11.65 11.65C11.45 11.45 11.35 11.2125 11.35 10.9375C11.35 10.6625 11.45 10.425 11.65 10.225L15.175 6.69996C15.3583 6.51663 15.5875 6.42496 15.8625 6.42496C16.1375 6.42496 16.375 6.51663 16.575 6.69996C16.775 6.89996 16.875 7.13746 16.875 7.41246C16.875 7.68746 16.775 7.92496 16.575 8.12496Z" fill="black"/>
</svg>
