<svg width="24" height="24" viewBox="0 0 24 24" fill="none" xmlns="http://www.w3.org/2000/svg">
<path d="M3 14C3 12.1167 3.55833 10.3083 4.675 8.575C5.79167 6.84167 7.325 5.325 9.275 4.025C9.64167 3.775 10.0208 3.7625 10.4125 3.9875C10.8042 4.2125 11 4.55 11 5V6.3C11 6.86667 11.1958 7.34167 11.5875 7.725C11.9792 8.10833 12.4583 8.3 13.025 8.3C13.3083 8.3 13.5792 8.2375 13.8375 8.1125C14.0958 7.9875 14.325 7.80833 14.525 7.575C14.6583 7.40833 14.8292 7.30417 15.0375 7.2625C15.2458 7.22083 15.4417 7.26667 15.625 7.4C16.675 8.15 17.5 9.10833 18.1 10.275C18.7 11.4417 19 12.6833 19 14C19 15.4667 18.6417 16.8042 17.925 18.0125C17.2083 19.2208 16.2667 20.175 15.1 20.875C15.3833 20.475 15.6042 20.0375 15.7625 19.5625C15.9208 19.0875 16 18.5833 16 18.05C16 17.3833 15.875 16.7542 15.625 16.1625C15.375 15.5708 15.0167 15.0417 14.55 14.575L11 11.1L7.475 14.575C6.99167 15.0583 6.625 15.5917 6.375 16.175C6.125 16.7583 6 17.3833 6 18.05C6 18.5833 6.07917 19.0875 6.2375 19.5625C6.39583 20.0375 6.61667 20.475 6.9 20.875C5.73333 20.175 4.79167 19.2208 4.075 18.0125C3.35833 16.8042 3 15.4667 3 14ZM11 13.9L13.125 15.975C13.4083 16.2583 13.625 16.575 13.775 16.925C13.925 17.275 14 17.65 14 18.05C14 18.8667 13.7083 19.5625 13.125 20.1375C12.5417 20.7125 11.8333 21 11 21C10.1667 21 9.45833 20.7125 8.875 20.1375C8.29167 19.5625 8 18.8667 8 18.05C8 17.6667 8.075 17.2958 8.225 16.9375C8.375 16.5792 8.59167 16.2583 8.875 15.975L11 13.9ZM21 11C20.7167 11 20.4792 10.9042 20.2875 10.7125C20.0958 10.5208 20 10.2833 20 10C20 9.71667 20.0958 9.47917 20.2875 9.2875C20.4792 9.09583 20.7167 9 21 9C21.2833 9 21.5208 9.09583 21.7125 9.2875C21.9042 9.47917 22 9.71667 22 10C22 10.2833 21.9042 10.5208 21.7125 10.7125C21.5208 10.9042 21.2833 11 21 11ZM21 8C20.7167 8 20.4792 7.90417 20.2875 7.7125C20.0958 7.52083 20 7.28333 20 7V4C20 3.71667 20.0958 3.47917 20.2875 3.2875C20.4792 3.09583 20.7167 3 21 3C21.2833 3 21.5208 3.09583 21.7125 3.2875C21.9042 3.47917 22 3.71667 22 4V7C22 7.28333 21.9042 7.52083 21.7125 7.7125C21.5208 7.90417 21.2833 8 21 8Z" fill="black"/>
</svg>
