<svg width="24" height="24" viewBox="0 0 24 24" fill="none" xmlns="http://www.w3.org/2000/svg">
<path d="M20.975 9.02495L14.925 2.97495L15.35 2.54995C15.7334 2.16662 16.2084 1.97912 16.775 1.98745C17.3417 1.99578 17.8167 2.19162 18.2 2.57495L21.425 5.79995C21.8084 6.18328 22 6.65412 22 7.21245C22 7.77078 21.8084 8.24162 21.425 8.62495L20.975 9.02495ZM8.65002 21.3999C8.26669 21.7833 7.79586 21.9749 7.23752 21.9749C6.67919 21.9749 6.20836 21.7833 5.82502 21.3999L2.60002 18.1749C2.21669 17.7916 2.02502 17.3208 2.02502 16.7624C2.02502 16.2041 2.21669 15.7333 2.60002 15.3499L3.00002 14.9499L9.05002 20.9999L8.65002 21.3999ZM12.275 20.6999C12.075 20.8999 11.8417 20.9999 11.575 20.9999C11.3084 20.9999 11.075 20.8999 10.875 20.6999L3.30002 13.1249C3.10002 12.9249 3.00002 12.6916 3.00002 12.4249C3.00002 12.1583 3.10002 11.9249 3.30002 11.7249L4.72502 10.2749C4.92502 10.0749 5.16252 9.97495 5.43752 9.97495C5.71252 9.97495 5.95002 10.0749 6.15002 10.2749L7.72502 11.8499L11.875 7.69995L10.3 6.12495C10.1 5.92495 10 5.69162 10 5.42495C10 5.15828 10.1 4.92495 10.3 4.72495L11.725 3.27495C11.925 3.07495 12.1625 2.97495 12.4375 2.97495C12.7125 2.97495 12.95 3.07495 13.15 3.27495L20.725 10.8499C20.925 11.0499 21.025 11.2874 21.025 11.5624C21.025 11.8374 20.925 12.0749 20.725 12.2749L19.275 13.6999C19.075 13.8999 18.8417 13.9999 18.575 13.9999C18.3084 13.9999 18.075 13.8999 17.875 13.6999L16.3 12.1249L12.15 16.2749L13.725 17.8499C13.925 18.0499 14.025 18.2874 14.025 18.5624C14.025 18.8374 13.925 19.0749 13.725 19.2749L12.275 20.6999Z" fill="black"/>
</svg>
