<svg width="24" height="24" viewBox="0 0 24 24" fill="none" xmlns="http://www.w3.org/2000/svg">
<path d="M20.975 9.02494L14.925 2.97494L15.35 2.54994C15.733 2.16694 16.208 1.97894 16.775 1.98694C17.342 1.99594 17.817 2.19194 18.2 2.57494L21.425 5.79994C21.808 6.18294 22 6.65394 22 7.21194C22 7.77094 21.808 8.24194 21.425 8.62494L20.975 9.02494ZM8.65003 21.3999C8.26702 21.7829 7.79602 21.9749 7.23802 21.9749C6.67902 21.9749 6.20802 21.7829 5.82502 21.3999L2.60002 18.1749C2.21702 17.7919 2.02502 17.3209 2.02502 16.7619C2.02502 16.2039 2.21702 15.7329 2.60002 15.3499L3.00002 14.9499L9.05003 20.9999L8.65003 21.3999ZM11.025 8.62494L8.67503 10.9559L13.075 15.3619L15.375 13.0809L11.025 8.62494ZM10.3 6.12494C10.1 5.92494 10 5.69194 10 5.42494C10 5.15794 10.1 4.92494 10.3 4.72494L11.725 3.27494C11.925 3.07494 12.163 2.97494 12.438 2.97494C12.712 2.97494 12.95 3.07494 13.15 3.27494L20.725 10.8499C20.925 11.0499 21.025 11.2869 21.025 11.5619C21.025 11.8369 20.925 12.0749 20.725 12.2749L19.275 13.6999C19.075 13.8999 18.842 13.9999 18.575 13.9999C18.308 13.9999 18.075 13.8999 17.875 13.6999L10.3 6.12494ZM13.725 17.8499C13.925 18.0499 14.025 18.2869 14.025 18.5619C14.025 18.8369 13.925 19.0749 13.725 19.2749L12.275 20.6999C12.075 20.8999 11.842 20.9999 11.575 20.9999C11.308 20.9999 11.075 20.8999 10.875 20.6999L3.30002 13.1249C3.10002 12.9249 3.00002 12.6919 3.00002 12.4249C3.00002 12.1579 3.10002 11.9249 3.30002 11.7249L4.72502 10.2749C4.92502 10.0749 5.16302 9.97494 5.43802 9.97494C5.71302 9.97494 5.95002 10.0749 6.15002 10.2749L13.725 17.8499Z" fill="black"/>
</svg>
