<svg width="24" height="24" viewBox="0 0 24 24" fill="none" xmlns="http://www.w3.org/2000/svg">
<path d="M20.65 9.37495L19.25 7.97495L20 7.19995L16.8 3.99995L16.025 4.74995L14.6 3.32495L15.35 2.54995C15.7334 2.16662 16.2084 1.97912 16.775 1.98745C17.3417 1.99578 17.8167 2.19162 18.2 2.57495L21.425 5.79995C21.8084 6.18328 22 6.65412 22 7.21245C22 7.77078 21.8084 8.24162 21.425 8.62495L20.65 9.37495ZM8.65002 21.3999C8.26669 21.7833 7.79586 21.9749 7.23752 21.9749C6.67919 21.9749 6.20836 21.7833 5.82502 21.3999L2.60002 18.1749C2.21669 17.7916 2.02502 17.3208 2.02502 16.7624C2.02502 16.2041 2.21669 15.7333 2.60002 15.3499L3.35002 14.5999L4.77502 16.0249L4.00002 16.7749L7.22502 19.9999L7.97502 19.2249L9.40002 20.6499L8.65002 21.3999ZM18.575 12.9999L20 11.5749L12.425 3.99995L11 5.42495L18.575 12.9999ZM11.575 19.9999L13 18.5499L5.45002 10.9999L4.00002 12.4249L11.575 19.9999ZM11.425 14.1499L14.175 11.4249L12.575 9.82495L9.85002 12.5749L11.425 14.1499ZM13 21.3999C12.6167 21.7833 12.1417 21.9749 11.575 21.9749C11.0084 21.9749 10.5334 21.7833 10.15 21.3999L2.60002 13.8499C2.21669 13.4666 2.02502 12.9916 2.02502 12.4249C2.02502 11.8583 2.21669 11.3833 2.60002 10.9999L4.02502 9.57495C4.40836 9.19162 4.87919 8.99995 5.43752 8.99995C5.99586 8.99995 6.46669 9.19162 6.85002 9.57495L8.42502 11.1499L11.175 8.39995L9.60002 6.84995C9.21669 6.46662 9.02502 5.99162 9.02502 5.42495C9.02502 4.85828 9.21669 4.38328 9.60002 3.99995L11.025 2.57495C11.4084 2.19162 11.8792 1.99995 12.4375 1.99995C12.9959 1.99995 13.4667 2.19162 13.85 2.57495L21.425 10.1499C21.8084 10.5333 22 11.0041 22 11.5624C22 12.1208 21.8084 12.5916 21.425 12.9749L20 14.3999C19.6167 14.7833 19.1417 14.9749 18.575 14.9749C18.0084 14.9749 17.5334 14.7833 17.15 14.3999L15.6 12.8249L12.85 15.5749L14.425 17.1499C14.8084 17.5333 15 18.0041 15 18.5624C15 19.1208 14.8084 19.5916 14.425 19.9749L13 21.3999Z" fill="black"/>
</svg>
