<svg width="24" height="24" viewBox="0 0 24 24" fill="none" xmlns="http://www.w3.org/2000/svg">
<path d="M9 6H11V4H9V6ZM13 6V4H15V6H13ZM9 14V12H11V14H9ZM17 10V8H19V10H17ZM17 14V12H19V14H17ZM13 14V12H15V14H13ZM17 6V4H19V6H17ZM11 8V6H13V8H11ZM6 20C5.71667 20 5.47917 19.9042 5.2875 19.7125C5.09583 19.5208 5 19.2833 5 19V5C5 4.71667 5.09583 4.47917 5.2875 4.2875C5.47917 4.09583 5.71667 4 6 4C6.28333 4 6.52083 4.09583 6.7125 4.2875C6.90417 4.47917 7 4.71667 7 5V6H9V8H7V10H9V12H7V19C7 19.2833 6.90417 19.5208 6.7125 19.7125C6.52083 19.9042 6.28333 20 6 20ZM15 12V10H17V12H15ZM11 12V10H13V12H11ZM9 10V8H11V10H9ZM13 10V8H15V10H13ZM15 8V6H17V8H15Z" fill="black"/>
</svg>
