<?xml version="1.0" encoding="UTF-8" standalone="no"?>
<!DOCTYPE svg PUBLIC "-//W3C//DTD SVG 20010904//EN"
              "http://www.w3.org/TR/2001/REC-SVG-20010904/DTD/svg10.dtd">

<svg xmlns="http://www.w3.org/2000/svg"
     width="2.66667in" height="2.66667in"
     viewBox="0 0 240 240">
  <path id="Imported Path"
        fill="black" stroke="none" stroke-width="1"
        d="M 209.75,90.25
           C 209.75,90.25 149.25,29.75 149.25,29.75
             149.25,29.75 153.50,25.50 153.50,25.50
             157.33,21.67 162.08,19.79 167.75,19.87
             173.42,19.96 178.17,21.92 182.00,25.75
             182.00,25.75 214.25,58.00 214.25,58.00
             218.08,61.83 220.00,66.54 220.00,72.12
             220.00,77.71 218.08,82.42 214.25,86.25
             214.25,86.25 209.75,90.25 209.75,90.25 Z
           M 86.50,214.00
           C 82.67,217.83 77.96,219.75 72.38,219.75
             66.79,219.75 62.08,217.83 58.25,214.00
             58.25,214.00 26.00,181.75 26.00,181.75
             22.17,177.92 20.25,173.21 20.25,167.62
             20.25,162.04 22.17,157.33 26.00,153.50
             26.00,153.50 30.00,149.50 30.00,149.50
             30.00,149.50 90.50,210.00 90.50,210.00
             90.50,210.00 86.50,214.00 86.50,214.00 Z
           M 110.25,86.25
           C 110.25,86.25 86.75,109.56 86.75,109.56
             86.75,109.56 130.75,153.62 130.75,153.62
             130.75,153.62 153.75,130.81 153.75,130.81
             153.75,130.81 110.25,86.25 110.25,86.25 Z
           M 103.00,61.25
           C 101.00,59.25 100.00,56.92 100.00,54.25
             100.00,51.58 101.00,49.25 103.00,47.25
             103.00,47.25 117.25,32.75 117.25,32.75
             119.25,30.75 121.63,29.75 124.38,29.75
             127.12,29.75 129.50,30.75 131.50,32.75
             131.50,32.75 207.25,108.50 207.25,108.50
             209.25,110.50 210.25,112.87 210.25,115.62
             210.25,118.37 209.25,120.75 207.25,122.75
             207.25,122.75 192.75,137.00 192.75,137.00
             190.75,139.00 188.42,140.00 185.75,140.00
             183.08,140.00 180.75,139.00 178.75,137.00
             178.75,137.00 103.00,61.25 103.00,61.25 Z
           M 137.25,178.50
           C 139.25,180.50 140.25,182.87 140.25,185.62
             140.25,188.37 139.25,190.75 137.25,192.75
             137.25,192.75 122.75,207.00 122.75,207.00
             120.75,209.00 118.42,210.00 115.75,210.00
             113.08,210.00 110.75,209.00 108.75,207.00
             108.75,207.00 33.00,131.25 33.00,131.25
             31.00,129.25 30.00,126.92 30.00,124.25
             30.00,121.58 31.00,119.25 33.00,117.25
             33.00,117.25 47.25,102.75 47.25,102.75
             49.25,100.75 51.63,99.75 54.38,99.75
             57.13,99.75 59.50,100.75 61.50,102.75
             61.50,102.75 137.25,178.50 137.25,178.50 Z
           M 386.00,306.67" />
</svg>
